0
SECTION
2
HEADER
9
$INSUNITS
70
4
9
$ACADVER
1
AC1014
9
$HANDSEED
5
FFFF
0
ENDSEC
0
SECTION
2
TABLES
0
TABLE
2
VPORT
5
8
100
AcDbSymbolTable
0
ENDTAB
0
TABLE
2
LTYPE
5
5
100
AcDbSymbolTable
0
LTYPE
5
14
100
AcDbSymbolTableRecord
100
AcDbLinetypeTableRecord
2
BYBLOCK
70
0
0
LTYPE
5
15
100
AcDbSymbolTableRecord
100
AcDbLinetypeTableRecord
2
BYLAYER
70
0
0
LTYPE
5
16
100
AcDbSymbolTableRecord
100
AcDbLinetypeTableRecord
2
DASHED
70
0
3
Dashed __ __ __ __ __ __ __ __ __ __ __ __ __ _
72
65
73
2
40
0.75
49
0.5
74
0
49
-0.25
74
0
0
ENDTAB
0
TABLE
2
LAYER
5
2
100
AcDbSymbolTable
70
3
0
LAYER
5
50
100
AcDbSymbolTableRecord
100
AcDbLayerTableRecord
2
1
70
0
62
7
6
DASHED
0
LAYER
5
51
100
AcDbSymbolTableRecord
100
AcDbLayerTableRecord
2
0
70
0
62
7
6
CONTINUOUS
0
ENDTAB
0
TABLE
2
STYLE
5
3
100
AcDbSymbolTable
70
1
0
STYLE
5
11
100
AcDbSymbolTableRecord
100
AcDbTextStyleTableRecord
2
STANDARD
70
0
0
ENDTAB
0
TABLE
2
VIEW
5
6
100
AcDbSymbolTable
70
0
0
ENDTAB
0
TABLE
2
UCS
5
7
100
AcDbSymbolTable
70
0
0
ENDTAB
0
TABLE
2
APPID
5
9
100
AcDbSymbolTable
70
2
0
APPID
5
12
100
AcDbSymbolTableRecord
100
AcDbRegAppTableRecord
2
ACAD
70
0
0
ENDTAB
0
TABLE
2
DIMSTYLE
5
A
100
AcDbSymbolTable
70
1
0
ENDTAB
0
TABLE
2
BLOCK_RECORD
5
1
100
AcDbSymbolTable
70
1
0
BLOCK_RECORD
5
1F
100
AcDbSymbolTableRecord
100
AcDbBlockTableRecord
2
*MODEL_SPACE
0
BLOCK_RECORD
5
1B
100
AcDbSymbolTableRecord
100
AcDbBlockTableRecord
2
*PAPER_SPACE
0
ENDTAB
0
ENDSEC
0
SECTION
2
BLOCKS
0
BLOCK
5
20
100
AcDbEntity
100
AcDbBlockBegin
2
*MODEL_SPACE
0
ENDBLK
5
21
100
AcDbEntity
100
AcDbBlockEnd
0
BLOCK
5
1C
100
AcDbEntity
100
AcDbBlockBegin
2
*PAPER_SPACE
0
ENDBLK
5
1D
100
AcDbEntity
100
AcDbBlockEnd
0
ENDSEC
0
SECTION
2
ENTITIES
0
LWPOLYLINE
5
100
100
AcDbEntity
8
0
100
AcDbPolyline
90
10
70
1
43
0.0
10
74.999999999999915
20
-19.019237886466872
10
74.999999999999872
20
-45
10
59.999999999999893
20
-45
10
74.999999999999872
20
-60.000000000000036
10
82.499999999911111
20
-55.669872981129075
10
82.49999999991104
20
-23.349364905337747
10
119.99999999999989
20
-1.6987298106754567
10
157.50000000008873
20
-23.349364905337712
10
164.99999999999986
20
-19.019237886466801
10
119.99999999999987
20
6.9615242270663291
0
LWPOLYLINE
5
101
100
AcDbEntity
8
0
100
AcDbPolyline
90
10
70
1
43
0.0
10
164.99999999999994
20
-29.999999999999588
10
157.49999999999994
20
-34.330127018921786
10
157.49999999999994
20
-66.650635094662292
10
119.99999999999993
20
-88.301270189273254
10
82.499999999911068
20
-66.650635094611005
10
74.999999999999929
20
-70.980762113533189
10
119.99999999999994
20
-96.96152422706632
10
164.99999999999994
20
-70.980762113533146
10
164.99999999999994
20
-45
10
179.99999999999994
20
-45.000000000000512
0
LWPOLYLINE
5
102
100
AcDbEntity
8
0
100
AcDbPolyline
90
6
70
1
43
0.0
10
116.25000000000003
20
-81.136206679812162
10
119.99999999999993
20
-83.301270189273254
10
123.75000000000003
20
-81.136206679812162
10
123.74999999999993
20
-8.8637933201366117
10
119.99999999999989
20
-6.6987298106754567
10
116.24999999999987
20
-8.8637933201366117
0
LWPOLYLINE
5
103
100
AcDbEntity
8
0
100
AcDbPolyline
90
4
70
1
43
0.0
10
152.49999999999994
20
-66.650635094662292
10
125.75000000000003
20
-66.650635094662292
10
125.75000000000003
20
-62.650635094662292
10
152.49999999999994
20
-62.650635094662277
0
LWPOLYLINE
5
104
100
AcDbEntity
8
0
100
AcDbPolyline
90
4
70
1
43
0.0
10
152.49999999999994
20
-53.550211698220764
10
125.75000000000003
20
-53.55021169822075
10
125.75000000000003
20
-49.550211698220743
10
152.49999999999994
20
-49.55021169822075
0
LWPOLYLINE
5
105
100
AcDbEntity
8
0
100
AcDbPolyline
90
4
70
1
43
0.0
10
125.75000000000003
20
-40.449788301779243
10
152.49999999999994
20
-40.449788301779243
10
152.49999999999994
20
-36.449788301779243
10
125.75000000000003
20
-36.449788301779236
0
LWPOLYLINE
5
106
100
AcDbEntity
8
0
100
AcDbPolyline
90
4
70
1
43
0.0
10
152.49999999999994
20
-27.349364905337715
10
125.75000000000003
20
-27.349364905337712
10
125.75000000000003
20
-23.349364905337712
10
152.49999999999994
20
-23.349364905337712
0
LINE
5
107
100
AcDbEntity
8
1
100
AcDbLine
10
152.49999999999994
20
-27.349364905337715
30
0
11
152.49999999999994
21
-36.449788301779243
31
0
0
LINE
5
108
100
AcDbEntity
8
1
100
AcDbLine
10
152.49999999999994
20
-40.449788301779243
30
0
11
152.49999999999994
21
-49.55021169822075
31
0
0
LINE
5
109
100
AcDbEntity
8
1
100
AcDbLine
10
152.49999999999994
20
-53.550211698220764
30
0
11
152.49999999999994
21
-62.650635094662277
31
0
0
LWPOLYLINE
5
110
100
AcDbEntity
8
0
100
AcDbPolyline
90
4
70
1
43
0.0
10
114.24999999999967
20
-66.650635094662292
10
114.24999999999996
20
-62.650635094662277
10
107.5832039324068
20
-62.650635094657432
42
-0.18712563508602478
10
104.48055127535773
20
-66.650635094662292
0
LWPOLYLINE
5
111
100
AcDbEntity
8
0
100
AcDbPolyline
90
6
70
1
43
0.0
10
87.499999999911068
20
-62.650635094662277
10
87.499999999911068
20
-66.650635094662292
10
100.87499999995545
20
-66.650635094648209
42
2.7324092951044676
10
94.958920216883655
20
-61.650635094662277
10
99.142949192366785
20
-61.650635094628598
42
-3.7320508074966532
10
100.87499999995543
20
-62.65063509466227
0
LINE
5
112
100
AcDbEntity
8
1
100
AcDbLine
10
114.24999999999967
20
-66.650635094662292
30
0
11
100.87499999995545
21
-66.650635094648209
31
0
0
LWPOLYLINE
5
113
100
AcDbEntity
8
0
100
AcDbPolyline
90
4
70
1
43
0.0
10
104.48055127535773
20
-53.550635094662283
42
0.18712563508602478
10
107.58320393242298
20
-49.550635094662255
10
114.24999999999996
20
-49.550635094662276
10
114.24999999999967
20
-53.550635094662283
0
LWPOLYLINE
5
114
100
AcDbEntity
8
0
100
AcDbPolyline
90
6
70
1
43
0.0
10
100.87499999995543
20
-49.550635094662276
42
3.7320508074966532
10
99.142949192308436
20
-48.550635094662269
10
94.958920216870581
20
-48.550635094664486
42
-2.7324092951044676
10
100.87499999995545
20
-53.550635094648207
10
87.499999999911068
20
-53.550635094662297
10
87.499999999911068
20
-49.550635094662276
0
LINE
5
115
100
AcDbEntity
8
1
100
AcDbLine
10
114.24999999999967
20
-53.550635094662283
30
0
11
100.87499999995545
21
-53.550635094648214
31
0
0
LWPOLYLINE
5
116
100
AcDbEntity
8
0
100
AcDbPolyline
90
4
70
1
43
0.0
10
104.48055127535773
20
-40.450635094662289
42
0.18712563508602478
10
107.58320393242298
20
-36.450635094662253
10
114.24999999999996
20
-36.450635094662275
10
114.24999999999967
20
-40.450635094662289
0
LWPOLYLINE
5
117
100
AcDbEntity
8
0
100
AcDbPolyline
90
6
70
1
43
0.0
10
100.87499999995543
20
-36.450635094662267
42
3.7320508074966532
10
99.142949192308436
20
-35.450635094662275
10
94.958920216870581
20
-35.450635094664491
42
-2.7324092951044676
10
100.87499999995545
20
-40.450635094648213
10
87.499999999911068
20
-40.450635094662289
10
87.499999999911068
20
-36.450635094662275
0
LINE
5
118
100
AcDbEntity
8
1
100
AcDbLine
10
114.24999999999967
20
-40.450635094662289
30
0
11
100.87499999995545
21
-40.450635094648213
31
0
0
LWPOLYLINE
5
119
100
AcDbEntity
8
0
100
AcDbPolyline
90
4
70
1
43
0.0
10
104.48055127535773
20
-27.350635094662291
42
0.18712563508602478
10
107.58320393242298
20
-23.350635094662252
10
114.24999999999996
20
-23.350635094662277
10
114.24999999999967
20
-27.350635094662291
0
LWPOLYLINE
5
120
100
AcDbEntity
8
0
100
AcDbPolyline
90
6
70
1
43
0.0
10
100.87499999995543
20
-23.35063509466227
42
3.7320508074966532
10
99.142949192308436
20
-22.350635094662273
10
94.958920216870581
20
-22.35063509466449
42
-2.7324092951044676
10
100.87499999995545
20
-27.350635094648212
10
87.499999999911068
20
-27.350635094662291
10
87.499999999911068
20
-23.350635094662277
0
LINE
5
121
100
AcDbEntity
8
1
100
AcDbLine
10
114.24999999999967
20
-27.350635094662291
30
0
11
100.87499999995545
21
-27.350635094648212
31
0
0
ENDSEC
0
SECTION
2
OBJECTS
0
DICTIONARY
5
C
100
AcDbDictionary
3
ACAD_GROUP
350
D
3
ACAD_MLINESTYLE
350
17
0
DICTIONARY
5
D
100
AcDbDictionary
0
DICTIONARY
5
1A
330
C
100
AcDbDictionary
0
DICTIONARY
5
17
100
AcDbDictionary
0
ENDSEC
0
EOF
